# xmcd
#
# Track frame offsets: 
#        150
#        13352
#        25220
#        36802
#        51930
#        66995
#        77447
#        93605
#        108032
#        125365
#        136675
#        147787
#
# Disc length: 2120 seconds
#
# Revision: 4
# Processed by: cddbd v1.5.2PL0 Copyright (c) Steve Scherf et al.
# Submitted via: ExactAudioCopyFreeDBPlugin 1.0
#
DISCID=9b08460c
DTITLE=Various Artist - Smoky Mountain Hymns Volume 3
DYEAR=1997
DGENRE=bluegrass
TTITLE0=When We All Get To Heaven
TTITLE1=Standing On The Promises
TTITLE2=Just Over In The Gloryland
TTITLE3=There Shall Be Showers Of Blessing
TTITLE4=At Calvary
TTITLE5=Farther Along
TTITLE6=This World Is Not My Home
TTITLE7=Glory To His Name
TTITLE8=Sweet By And By
TTITLE9=Jesus, Hold My Hand
TTITLE10=Wonderful Words Of Life
TTITLE11=Since I Have Been Redeemed
EXTD=
EXTT0=
EXTT1=
EXTT2=
EXTT3=
EXTT4=
EXTT5=
EXTT6=
EXTT7=
EXTT8=
EXTT9=
EXTT10=
EXTT11=
PLAYORDER=
